<svg width="16" height="16" viewBox="0 0 16 16" fill="none" xmlns="http://www.w3.org/2000/svg">
<path fill-rule="evenodd" clip-rule="evenodd" d="M14.4909 14.4908C14.8838 14.098 15.1902 13.6274 15.3906 13.1092C15.5834 12.6131 15.7153 12.0461 15.7532 11.2158C15.7911 10.3839 15.8001 10.1183 15.8001 7.99996C15.8001 5.88163 15.7911 5.61589 15.7532 4.78405C15.7153 3.9538 15.5834 3.38683 15.3906 2.89069C15.1947 2.37024 14.8878 1.89876 14.4909 1.50915C14.1013 1.11229 13.6298 0.805195 13.1094 0.609307C12.6132 0.416623 12.0462 0.284791 11.2159 0.247039C10.3841 0.208927 10.1185 0.199951 8.00008 0.199951C5.88172 0.199951 5.61601 0.208927 4.78418 0.246895C3.95392 0.284791 3.38695 0.416623 2.89081 0.609451C2.37036 0.805315 1.89889 1.11234 1.50927 1.50913C1.1124 1.89871 0.805292 2.37018 0.609368 2.89065C0.416684 3.38683 0.284852 3.9538 0.2471 4.78405C0.208988 5.61589 0.200012 5.8816 0.200012 7.99996C0.200012 10.1183 0.208988 10.3841 0.2471 11.2158C0.285008 12.0461 0.41684 12.6131 0.609668 13.1092C0.805532 13.6298 1.11255 14.1011 1.50934 14.4908C1.89895 14.8876 2.37042 15.1946 2.89087 15.3904C3.38704 15.5832 3.95402 15.7151 4.78424 15.753C5.61619 15.791 5.88181 15.8 8.00016 15.8C10.1185 15.8 10.3842 15.791 11.216 15.753C12.0463 15.7151 12.6133 15.5832 13.1094 15.3904C13.6275 15.19 14.0982 14.8836 14.4909 14.4908ZM1.3994 7.0819C1.3997 7.33424 1.40007 7.63447 1.40007 7.99998C1.40007 8.36548 1.3997 8.66571 1.3994 8.91804C1.3982 9.9031 1.3979 10.1582 1.42357 10.7186C1.45551 11.421 1.49389 11.9373 1.61107 12.3263C1.72372 12.7004 1.85007 13.081 2.26257 13.5405C2.67507 13.9998 3.07294 14.2079 3.57975 14.3608C4.08656 14.5136 4.72353 14.5464 5.27664 14.5716C5.904 14.6003 6.15264 14.6002 7.46858 14.5998H8.00008C8.35166 14.5998 8.64284 14.6001 8.88909 14.6004C9.89835 14.6015 10.1531 14.6018 10.7189 14.5758C11.4215 14.5439 11.9377 14.5055 12.3267 14.3884C12.7008 14.2757 13.0814 14.1494 13.5408 13.7368C14.0001 13.3244 14.2082 12.9264 14.3611 12.4197C14.514 11.9128 14.5469 11.2758 14.5721 10.7228C14.6006 10.0962 14.6005 9.84828 14.6003 8.53694V8.53681L14.6001 8.00042V7.46892C14.6005 6.15297 14.6006 5.90433 14.5719 5.27697C14.5467 4.72387 14.5139 4.0869 14.3611 3.58009C14.2082 3.07329 14.0001 2.67541 13.5408 2.26291C13.0814 1.85041 12.7007 1.72406 12.3267 1.6114C11.9376 1.49422 11.4213 1.45585 10.7189 1.4239C10.1531 1.39798 9.89834 1.39826 8.88912 1.39936C8.64285 1.39964 8.35167 1.39996 8.00008 1.39996L7.46846 1.39987C6.15262 1.39952 5.90398 1.39945 5.27664 1.42807C4.72353 1.4533 4.08656 1.48615 3.57975 1.639C3.07294 1.79186 2.67507 1.99994 2.26257 2.45932C1.85007 2.9187 1.72372 3.29938 1.61107 3.67339C1.49389 4.06244 1.45551 4.57868 1.42357 5.2812C1.3979 5.84152 1.3982 6.09676 1.3994 7.0819ZM7.99996 5.30013C6.5089 5.30013 5.30016 6.50888 5.30016 7.99994C5.30016 9.491 6.5089 10.6997 7.99996 10.6997C9.49102 10.6997 10.6998 9.491 10.6998 7.99994C10.6998 6.50888 9.49102 5.30013 7.99996 5.30013ZM4.10016 7.99994C4.10016 5.84613 5.84616 4.10013 7.99996 4.10013C10.1538 4.10013 11.8998 5.84613 11.8998 7.99994C11.8998 10.1537 10.1538 11.8997 7.99996 11.8997C5.84616 11.8997 4.10016 10.1537 4.10016 7.99994ZM12.1637 4.73631C12.6607 4.73631 13.0637 4.33338 13.0637 3.83631C13.0637 3.33926 12.6607 2.93631 12.1637 2.93631C11.6666 2.93631 11.2637 3.33926 11.2637 3.83631C11.2637 4.33338 11.6666 4.73631 12.1637 4.73631Z" fill="white"/>
</svg>
